<svg xmlns="http://www.w3.org/2000/svg" version="1.1" xmlns:xlink="http://www.w3.org/1999/xlink" xmlns:svgjs="http://svgjs.dev/svgjs" width="1000" height="1000" viewBox="0 0 1000 1000"><rect width="1000" height="1000" fill="#ffffff"></rect><g transform="matrix(0.7,0,0,0.7,150,281.25)"><svg viewBox="0 0 512 320" data-background-color="#ffffff" preserveAspectRatio="xMidYMid meet" height="625" width="1000" xmlns="http://www.w3.org/2000/svg" xmlns:xlink="http://www.w3.org/1999/xlink"><g id="tight-bounds" transform="matrix(1,0,0,1,0,0)"><svg viewBox="0 0 512 320" height="320" width="512"><g><svg></svg></g><g><svg viewBox="0 0 512 320" height="320" width="512"><g><path xmlns="http://www.w3.org/2000/svg" d="M96 160c0-88.366 71.634-160 160-160 88.366 0 160 71.634 160 160 0 88.366-71.634 160-160 160-88.366 0-160-71.634-160-160zM256 317.863c87.185 0 157.863-70.678 157.863-157.863 0-87.185-70.678-157.863-157.863-157.863-87.185 0-157.863 70.678-157.863 157.863 0 87.185 70.678 157.863 157.863 157.863z" fill="#058240" fill-rule="nonzero" stroke="none" stroke-width="1" stroke-linecap="butt" stroke-linejoin="miter" stroke-miterlimit="10" stroke-dasharray="" stroke-dashoffset="0" font-family="none" font-weight="none" font-size="none" text-anchor="none" style="mix-blend-mode: normal" data-fill-palette-color="tertiary"></path></g><g transform="matrix(1,0,0,1,32,20.139999999999986)"><svg viewBox="0 0 448 279.72" height="279.72" width="448"><g><svg viewBox="0 0 448 279.72" height="279.72" width="448"><g><svg viewBox="0 0 448 279.72" height="279.72" width="448"><g><svg viewBox="0 0 448 279.72" height="279.72" width="448"><g><svg viewBox="0 0 448 279.72" height="279.72" width="448"><g transform="matrix(1,0,0,1,174.55202279162472,90.41202279162474)"><svg viewBox="0 0 98.89595441675056 98.89595441675056" height="98.89595441675056" width="98.89595441675056"><g><svg version="1.1" xmlns="http://www.w3.org/2000/svg" xmlns:xlink="http://www.w3.org/1999/xlink" x="0" y="0" viewBox="0 0 100 100" enable-background="new 0 0 100 100" xml:space="preserve" height="98.89595441675056" width="98.89595441675056" class="icon-o-0" data-fill-palette-color="accent" id="o-0"><path d="M50 84c-3.366 0-6.513 0.077-9.464 0.209 0.853 2.516 2.677 4.575 5.028 5.743C46.902 90.617 48.404 91 50 91s3.098-0.383 4.436-1.048c2.352-1.168 4.176-3.228 5.028-5.743C56.513 84.077 53.366 84 50 84z" fill="#000000" data-fill-palette-color="accent"></path><path d="M98.447 83.224h0.002C77.732 56.169 93.332 14.587 58.985 8.707 58.829 3.881 54.864 0 50 0s-8.829 3.881-8.985 8.707C6.668 14.587 22.268 56.169 1.551 83.224h0.002C0.559 84.342 0 85.595 0 87c0 12.635 44.882 13 50 13s50-0.365 50-13C100 85.595 99.441 84.342 98.447 83.224zM50 4c2.483 0 4.533 1.825 4.919 4.201C53.365 8.073 51.735 8 50 8s-3.365 0.073-4.919 0.201C45.467 5.825 47.517 4 50 4zM50 94c-25.903 0-41.604-4.352-43.863-7C8.396 84.352 24.098 80 50 80s41.604 4.352 43.863 7C91.604 89.648 75.903 94 50 94z" fill="#000000" data-fill-palette-color="accent"></path></svg></g></svg></g><path d="M117.877 92.301L116.815 95.382 102.743 98.084 100.929 103.343 112.674 107.392 111.664 110.321 85.065 101.15 88.131 92.259C88.687 90.648 89.486 89.339 90.529 88.329 91.579 87.322 92.78 86.687 94.134 86.423 95.485 86.165 96.89 86.288 98.348 86.791V86.791C100.117 87.4 101.448 88.455 102.343 89.955 103.237 91.456 103.601 93.166 103.435 95.088V95.088ZM88.491 99.054L98.514 102.51 100.435 96.937C101.028 95.219 101.029 93.744 100.44 92.513 99.846 91.272 98.795 90.392 97.286 89.872V89.872C95.777 89.351 94.403 89.395 93.165 90.004 91.922 90.604 91.005 91.763 90.412 93.481V93.481ZM147.363 53.842L141.226 59.781 139.33 57.822 141.282 55.933 125.501 39.626 123.549 41.515 121.661 39.563 127.798 33.624 129.686 35.576 127.727 37.472 143.508 53.779 145.467 51.883ZM186.272 32.042L183.308 32.943 175.124 6.024 178.281 5.065 198.805 23.364 191.976 0.901 194.94 0 203.124 26.918 199.967 27.878 179.466 9.656ZM263.715 32.034L260.546 31.27 256.513 17.52 251.105 16.217 248.195 28.294 245.183 27.569 251.773 0.217 260.916 2.419C262.572 2.818 263.952 3.489 265.057 4.431 266.16 5.38 266.907 6.515 267.299 7.837 267.684 9.158 267.696 10.568 267.335 12.067V12.067C266.897 13.886 265.974 15.312 264.566 16.346 263.158 17.379 261.49 17.905 259.561 17.923V17.923ZM254.186 3.426L251.703 13.733 257.434 15.114C259.201 15.54 260.669 15.4 261.839 14.696 263.017 13.986 263.793 12.856 264.167 11.304V11.304C264.54 9.752 264.365 8.389 263.641 7.215 262.925 6.035 261.684 5.232 259.917 4.807V4.807ZM304.805 57.724L298.308 52.181 300.077 50.107 302.143 51.87 316.872 34.606 314.806 32.843 316.569 30.777 323.066 36.32 321.303 38.386 319.229 36.617 304.5 53.881 306.574 55.65ZM330.212 94.38L329.032 91.516 355.047 80.801 356.304 83.852 340.046 106.028 361.755 97.087 362.935 99.952 336.92 110.666 335.663 107.616 351.846 85.47ZM103.866 197.906L119.87 196.999 120.836 199.505 100.567 200.59 99.514 197.859 111.641 188.151 95.998 188.736 94.989 186.117 110.717 173.252 111.785 176.021 99.251 186.156 115.373 185.332 116.354 187.876ZM117.073 228.607L115.408 226.348 130.946 214.894 132.611 217.153ZM134.81 213.795C134.432 213.282 134.293 212.726 134.393 212.128 134.494 211.52 134.799 211.029 135.306 210.655V210.655C135.792 210.296 136.335 210.163 136.935 210.254 137.526 210.343 138.01 210.644 138.388 211.157V211.157C138.746 211.643 138.885 212.186 138.803 212.788 138.721 213.399 138.425 213.891 137.918 214.265V214.265C137.432 214.623 136.88 214.756 136.261 214.662 135.651 214.57 135.168 214.281 134.81 213.795ZM137.413 249.097L135.261 247.296 146.013 234.455 143.484 232.336 145.124 230.377 147.653 232.496 151.761 227.59 153.912 229.392 149.805 234.297 153.222 237.158 151.582 239.117 148.165 236.256ZM175.906 249.638C177.115 250.232 178.111 251.027 178.891 252.024 179.672 253.02 180.129 254.149 180.264 255.411 180.393 256.67 180.136 257.952 179.494 259.258V259.258L173.798 270.849 171.279 269.612 176.43 259.13C178.116 255.7 177.43 253.233 174.373 251.731V251.731C172.597 250.858 170.955 250.832 169.446 251.652 167.934 252.478 166.658 253.951 165.617 256.069V256.069L161.358 264.736 158.839 263.498 172.047 236.623 174.565 237.86 168.452 250.301C169.595 249.48 170.802 249.008 172.072 248.886 173.346 248.757 174.624 249.008 175.906 249.638ZM249.329 278.065L233.654 279.72 230.7 251.741 233.781 251.415 236.467 276.854 249.061 275.524ZM277.893 269.196L269.897 272.195 268.94 269.642 271.483 268.688 263.518 247.45 260.975 248.404 260.017 245.851 268.014 242.852 268.971 245.405 266.419 246.362 274.384 267.6 276.936 266.643ZM306.999 252.342C305.337 253.569 303.415 254.347 301.232 254.675 299.048 255.004 296.914 254.846 294.829 254.202V254.202L295.534 250.905C297.259 251.582 299.015 251.832 300.801 251.654 302.586 251.487 304.199 250.871 305.639 249.807V249.807C307.209 248.648 308.145 247.415 308.447 246.108 308.753 244.807 308.466 243.56 307.586 242.368V242.368C306.621 241.062 305.446 240.384 304.058 240.334 302.666 240.278 300.823 240.689 298.528 241.566V241.566C292.884 243.925 288.893 243.522 286.554 240.355V240.355C285.1 238.386 284.623 236.396 285.122 234.386 285.621 232.375 287.009 230.529 289.285 228.848V228.848C290.947 227.621 292.665 226.831 294.439 226.479 296.213 226.128 298.095 226.209 300.084 226.724V226.724L299.351 229.829C297.752 229.335 296.287 229.179 294.955 229.362 293.613 229.544 292.279 230.125 290.952 231.105V231.105C289.561 232.133 288.663 233.3 288.261 234.606 287.858 235.912 288.073 237.129 288.906 238.256V238.256C289.758 239.411 290.843 240.022 292.161 240.091 293.474 240.164 295.275 239.713 297.565 238.739V238.739C300.327 237.658 302.744 237.19 304.818 237.334 306.887 237.482 308.648 238.54 310.102 240.509V240.509C310.998 241.723 311.484 243.023 311.558 244.411 311.623 245.797 311.264 247.179 310.481 248.557 309.708 249.937 308.547 251.199 306.999 252.342ZM336.629 221.074C335.433 222.758 333.849 224.096 331.877 225.089 329.905 226.082 327.828 226.597 325.646 226.635V226.635L325.288 223.284C327.138 223.389 328.884 223.078 330.526 222.353 332.17 221.637 333.51 220.549 334.547 219.089V219.089C335.677 217.499 336.182 216.035 336.062 214.699 335.947 213.367 335.285 212.272 334.077 211.414V211.414C332.754 210.474 331.425 210.197 330.091 210.581 328.751 210.962 327.128 211.927 325.221 213.477V213.477C320.594 217.478 316.676 218.338 313.467 216.059V216.059C311.471 214.641 310.397 212.899 310.244 210.833 310.092 208.767 310.835 206.58 312.473 204.273V204.273C313.67 202.589 315.056 201.304 316.632 200.416 318.208 199.529 320.022 199.02 322.072 198.889V198.889L322.344 202.068C320.67 202.096 319.229 202.405 318.021 202.995 316.803 203.586 315.717 204.554 314.761 205.899V205.899C313.759 207.309 313.271 208.698 313.295 210.064 313.32 211.431 313.904 212.52 315.046 213.331V213.331C316.216 214.162 317.438 214.405 318.712 214.059 319.982 213.719 321.552 212.73 323.425 211.09V211.09C325.712 209.202 327.863 208.003 329.878 207.494 331.89 206.989 333.893 207.446 335.889 208.864V208.864C337.119 209.737 337.985 210.822 338.488 212.117 338.982 213.414 339.072 214.839 338.758 216.392 338.453 217.945 337.744 219.505 336.629 221.074ZM357.463 171.294L356.635 174.06 348.262 174.567 344.914 185.755 351.715 190.5 350.827 193.468 326.737 175.832 327.564 173.067ZM331.012 175.652L342.73 184.104 345.53 174.747ZM86.585 143.179C86.585 137.244 91.397 132.432 97.332 132.432 103.268 132.432 108.08 137.244 108.08 143.179 108.08 149.115 103.268 153.927 97.332 153.927 91.397 153.927 86.585 149.115 86.585 143.179ZM339.822 143.179C339.822 137.244 344.634 132.432 350.569 132.432 356.505 132.432 361.317 137.244 361.317 143.179 361.317 149.115 356.505 153.927 350.569 153.927 344.634 153.927 339.822 149.115 339.822 143.179Z" fill="#000000" data-fill-palette-color="primary"></path></svg></g></svg></g></svg></g></svg></g></svg></g></svg></g><defs></defs></svg><rect width="512" height="320" fill="none" stroke="none" visibility="hidden"></rect></g></svg></g></svg>